<svg xmlns="http://www.w3.org/2000/svg" width="1024" height="1024" viewBox="0 0 1024 1024">
  <path fill="#23211C" d="M153.4 680.9L244.1 680.9L261.3 625.0L395.9 625.0L409.3 680.9L503.4 680.9L358.9 314.5L298.3 314.5ZM283.3 545.4L328.0 397.9L374.4 545.4ZM684.0 688.6C711.5 688.6 736.0 678.7 754.1 664.1L754.1 680.9L817.8 680.9L790.2 438.3L740.3 438.3L742.1 452.1C726.6 443.1 701.2 436.6 681.9 436.2C619.9 434.9 585.1 496.8 582.1 569.9C579.1 643.9 610.9 688.6 684.0 688.6ZM678.9 609.0C626.8 609.0 617.8 603.0 630.3 555.3C647.0 491.7 664.2 486.9 683.6 486.9C734.3 486.9 734.8 518.3 744.2 551.4C757.1 596.6 743.8 609.0 678.9 609.0Z"/>
</svg>
